<svg width="148" height="30" viewBox="0 0 148 30" fill="none" xmlns="http://www.w3.org/2000/svg">
<g clip-path="url(#clip0_561_119)">
<path fill-rule="evenodd" clip-rule="evenodd" d="M33 19.3118L44.469 4.8108H33.1786V1.5152H48.9372V4.9307L37.4087 19.3717H49.116V22.7273H33V19.3118V19.3118ZM50.956 8.1818H54.5373V22.7273H50.9559V8.1818H50.956ZM50.359 3.3333C50.359 2.7637 50.5673 2.2678 50.984 1.8455C51.4007 1.4233 51.9288 1.2121 52.5683 1.2121C53.2078 1.2121 53.7456 1.4134 54.1816 1.8161C54.6176 2.2187 54.8357 2.7245 54.8357 3.3333C54.8357 3.9422 54.6177 4.4479 54.1817 4.8506C53.7456 5.2532 53.2078 5.4546 52.5683 5.4546C51.9288 5.4546 51.4007 5.2434 50.984 4.8211C50.5673 4.3988 50.359 3.9029 50.359 3.3333V3.3333ZM59.7136 8.3007V10.32H59.8019C59.9786 10.0387 60.2092 9.7524 60.4938 9.461C60.7784 9.1697 61.1268 8.9085 61.5389 8.6774C61.9511 8.4464 62.4172 8.2555 62.9373 8.1048C63.4575 7.9541 64.0413 7.8788 64.689 7.8788C65.69 7.8788 66.6125 8.0747 67.4565 8.4665C68.3005 8.8583 69.0266 9.3957 69.635 10.0789C70.2435 10.7619 70.7145 11.5657 71.0482 12.4899C71.3819 13.4141 71.5487 14.4087 71.5487 15.4735C71.5487 16.5385 71.3867 17.538 71.0629 18.4723C70.7391 19.4065 70.2779 20.2203 69.6792 20.9134C69.0806 21.6066 68.3544 22.1591 67.5006 22.571C66.6468 22.9829 65.6802 23.1888 64.6007 23.1888C63.5997 23.1888 62.6822 22.9778 61.848 22.5559C61.0139 22.134 60.3711 21.5614 59.9197 20.8381H59.8608V30H56.3279V8.3007H59.7136V8.3007ZM67.9673 15.5757C67.9673 15.0101 67.8825 14.4495 67.7127 13.8939C67.543 13.3384 67.2884 12.8384 66.949 12.3939C66.6095 11.9495 66.1802 11.5909 65.661 11.3182C65.1419 11.0455 64.5329 10.9091 63.834 10.9091C63.175 10.9091 62.586 11.0505 62.0669 11.3333C61.5477 11.6162 61.1034 11.9798 60.734 12.4243C60.3646 12.8687 60.085 13.3737 59.8954 13.9393C59.7057 14.5051 59.6108 15.0707 59.6108 15.6363C59.6108 16.202 59.7057 16.7626 59.8954 17.3182C60.0851 17.8737 60.3646 18.3737 60.734 18.8182C61.1034 19.2626 61.5477 19.6212 62.0669 19.8939C62.586 20.1667 63.1751 20.303 63.834 20.303C64.5329 20.303 65.1419 20.1616 65.661 19.8788C66.1802 19.596 66.6095 19.2323 66.949 18.7878C67.2884 18.3434 67.543 17.8384 67.7127 17.2728C67.8825 16.7071 67.9673 16.1414 67.9673 15.5758V15.5757ZM72.9918 1.5152H81.1816C81.9729 1.5152 82.7543 1.61 83.5258 1.7998C84.2973 1.9895 84.9848 2.2991 85.5881 2.7286C86.1915 3.158 86.6811 3.7123 87.0569 4.3914C87.4329 5.0704 87.6207 5.8894 87.6207 6.8481C87.6207 8.0466 87.2844 9.0353 86.6118 9.8142C85.9392 10.5932 85.0589 11.1525 83.9709 11.492V11.552C85.2963 11.7317 86.3843 12.251 87.2349 13.11C88.0856 13.9688 88.5109 15.1173 88.5109 16.5554C88.5109 17.7139 88.2835 18.6876 87.8285 19.4765C87.3735 20.2655 86.7751 20.8997 86.0332 21.379C85.2914 21.8584 84.4407 22.203 83.4813 22.4127C82.5212 22.6225 81.5413 22.728 80.5585 22.7273H72.9918V1.5152V1.5152ZM76.573 10H79.9017C81.15 10 82.1011 9.753 82.7549 9.2589C83.4088 8.7649 83.7357 8.0632 83.7357 7.1542C83.7357 6.2055 83.3989 5.5336 82.7252 5.1383C82.0515 4.7431 81.0014 4.5455 79.5748 4.5455H76.573V10ZM76.573 19.394H79.933C80.4088 19.394 80.9241 19.3596 81.4792 19.291C82.0342 19.2223 82.5447 19.0801 83.0105 18.8644C83.4764 18.6486 83.8629 18.3348 84.1702 17.9229C84.4774 17.511 84.631 16.9619 84.631 16.2754C84.631 15.177 84.2544 14.4121 83.5011 13.9806C82.7479 13.5491 81.6081 13.3333 80.0817 13.3333H76.573V19.3939V19.394ZM89.4062 15.3949C89.4062 14.2615 89.6093 13.2325 90.0157 12.3079C90.422 11.3833 90.972 10.5929 91.6657 9.9368C92.3594 9.2806 93.1819 8.7736 94.1333 8.4157C95.0847 8.0577 96.0955 7.8787 97.1658 7.8787C98.2361 7.8787 99.2468 8.0577 100.198 8.4157C101.15 8.7736 101.972 9.2806 102.666 9.9367C103.36 10.5929 103.91 11.3833 104.316 12.3079C104.722 13.2325 104.925 14.2615 104.925 15.3949C104.925 16.5283 104.722 17.5622 104.316 18.4968C103.91 19.4313 103.36 20.2316 102.666 20.8978C101.972 21.5638 101.15 22.0858 100.198 22.4636C99.2469 22.8414 98.2361 23.0303 97.1658 23.0303C96.0955 23.0303 95.0847 22.8414 94.1333 22.4636C93.1819 22.0858 92.3593 21.5639 91.6657 20.8978C90.972 20.2316 90.422 19.4313 90.0157 18.4968C89.6093 17.5622 89.4062 16.5283 89.4062 15.3948V15.3949ZM92.9875 15.5758C92.9875 16.1414 93.0727 16.7071 93.243 17.2728C93.4134 17.8384 93.6689 18.3434 94.0096 18.7878C94.3502 19.2323 94.7811 19.596 95.3021 19.8788C95.8231 20.1616 96.4444 20.303 97.1658 20.303C97.8872 20.303 98.5084 20.1616 99.0295 19.8788C99.5505 19.596 99.9813 19.2323 100.322 18.7878C100.663 18.3434 100.918 17.8384 101.089 17.2728C101.259 16.7071 101.344 16.1414 101.344 15.5758C101.344 15.0101 101.259 14.4495 101.089 13.8939C100.918 13.3384 100.663 12.8384 100.322 12.3939C99.9813 11.9495 99.5505 11.5909 99.0295 11.3182C98.5085 11.0455 97.8872 10.9091 97.1658 10.9091C96.4444 10.9091 95.8231 11.0455 95.3021 11.3181C94.7811 11.5909 94.3502 11.9495 94.0096 12.3939C93.6689 12.8384 93.4134 13.3384 93.243 13.8939C93.0727 14.4495 92.9875 15.0101 92.9875 15.5758V15.5758ZM105.87 15.3948C105.87 14.2615 106.073 13.2325 106.479 12.3079C106.886 11.3833 107.436 10.5929 108.129 9.9368C108.823 9.2806 109.646 8.7736 110.597 8.4157C111.548 8.0577 112.559 7.8787 113.63 7.8787C114.7 7.8787 115.711 8.0577 116.662 8.4157C117.613 8.7736 118.436 9.2806 119.13 9.9367C119.823 10.5929 120.373 11.3833 120.78 12.3079C121.186 13.2325 121.389 14.2615 121.389 15.3949C121.389 16.5283 121.186 17.5622 120.78 18.4968C120.373 19.4313 119.823 20.2316 119.13 20.8978C118.436 21.5638 117.613 22.0858 116.662 22.4636C115.711 22.8414 114.7 23.0303 113.63 23.0303C112.559 23.0303 111.548 22.8414 110.597 22.4636C109.646 22.0858 108.823 21.5639 108.129 20.8978C107.436 20.2316 106.886 19.4313 106.479 18.4968C106.073 17.5622 105.87 16.5283 105.87 15.3948V15.3948ZM109.451 15.5758C109.451 16.1414 109.536 16.7071 109.707 17.2728C109.877 17.8384 110.133 18.3434 110.473 18.7878C110.814 19.2323 111.245 19.596 111.766 19.8788C112.287 20.1616 112.908 20.303 113.63 20.303C114.351 20.303 114.972 20.1616 115.493 19.8788C116.014 19.596 116.445 19.2323 116.786 18.7878C117.126 18.3434 117.382 17.8384 117.552 17.2728C117.723 16.7071 117.808 16.1414 117.808 15.5758C117.808 15.0101 117.723 14.4495 117.552 13.8939C117.382 13.3384 117.126 12.8384 116.786 12.3939C116.445 11.9495 116.014 11.5909 115.493 11.3182C114.972 11.0455 114.351 10.9091 113.63 10.9091C112.908 10.9091 112.287 11.0455 111.766 11.3181C111.245 11.5909 110.814 11.9495 110.473 12.3939C110.133 12.8384 109.877 13.3384 109.707 13.8939C109.536 14.4495 109.451 15.0101 109.451 15.5758V15.5758ZM122.583 0H126.149V14.3699H126.238L131.647 8.2973H136.224L130.042 14.8208L136.61 22.7273H131.885L126.238 15.3319H126.149V22.7273H122.583V0V0ZM145.719 12.114C145.407 11.6965 144.978 11.3336 144.432 11.0254C143.886 10.7172 143.292 10.5631 142.648 10.5631C142.083 10.5631 141.566 10.6824 141.098 10.9211C140.63 11.1596 140.396 11.5573 140.396 12.1141C140.396 12.6708 140.655 13.0635 141.171 13.2921C141.688 13.5208 142.444 13.7545 143.438 13.9931C143.964 14.1124 144.496 14.2715 145.032 14.4703C145.568 14.6691 146.055 14.9326 146.494 15.2607C146.933 15.5887 147.289 15.9964 147.561 16.4835C147.834 16.9707 147.971 17.5622 147.971 18.2582C147.971 19.1331 147.81 19.8737 147.488 20.4802C147.167 21.0867 146.738 21.5788 146.202 21.9566C145.665 22.3344 145.042 22.6078 144.33 22.7768C143.618 22.9458 142.882 23.0303 142.122 23.0303C141.03 23.0303 139.968 22.8265 138.934 22.4189C137.901 22.0113 137.043 21.4297 136.361 20.6741L138.671 18.467C139.061 18.984 139.568 19.4114 140.192 19.7495C140.816 20.0875 141.508 20.2565 142.268 20.2565C142.522 20.2565 142.78 20.2267 143.043 20.167C143.306 20.1074 143.55 20.013 143.774 19.8837C143.995 19.7575 144.181 19.5781 144.315 19.3617C144.452 19.143 144.52 18.8746 144.52 18.5564C144.52 17.9599 144.252 17.5324 143.716 17.2739C143.18 17.0154 142.375 16.7569 141.303 16.4984C140.781 16.3804 140.268 16.226 139.768 16.0361C139.271 15.8473 138.827 15.5987 138.437 15.2905C138.047 14.9823 137.735 14.5995 137.501 14.1422C137.267 13.6849 137.15 13.1182 137.15 12.4422C137.15 11.6468 137.311 10.9608 137.633 10.3842C137.955 9.8075 138.379 9.3352 138.905 8.9674C139.431 8.5996 140.026 8.3262 140.689 8.1472C141.352 7.9682 142.034 7.8788 142.736 7.8788C143.75 7.8788 144.739 8.0578 145.704 8.4157C146.669 8.7736 147.435 9.3204 148 10.0561L145.719 12.1141L145.719 12.114Z" fill="white"/>
<path fill-rule="evenodd" clip-rule="evenodd" d="M0 11.5318C0 10.9781 0.4394 10.5293 1.0064 10.5293H2.8241C3.38 10.5293 3.8306 10.9851 3.8306 11.5318V22.5293H0V11.5319V11.5318Z" fill="#FF194A"/>
<path fill-rule="evenodd" clip-rule="evenodd" d="M6.61652 6.59713C6.61652 6.03993 7.05592 5.58813 7.62292 5.58813H9.44062C9.99652 5.58813 10.4471 6.04133 10.4471 6.59713V22.5293H6.61652V6.59713Z" fill="#0064FF"/>
<path fill-rule="evenodd" clip-rule="evenodd" d="M13.5812 8.34858C13.5812 7.79858 14.0206 7.35278 14.5876 7.35278H16.4053C16.9612 7.35278 17.4118 7.80698 17.4118 8.34858V22.5293H13.5812V8.34858V8.34858Z" fill="#00D478"/>
<path fill-rule="evenodd" clip-rule="evenodd" d="M20.1976 2.0095C20.1976 1.452 20.6371 1 21.2041 1H23.0218C23.5776 1 24.0282 1.4497 24.0282 2.0095V22.5295H20.1976V2.0095V2.0095Z" fill="#9453F5"/>
</g>
<defs>
<clipPath id="clip0_561_119">
<rect width="148" height="30" fill="white"/>
</clipPath>
</defs>
</svg>
