<svg width="94" height="27" viewBox="0 0 94 27" fill="none" xmlns="http://www.w3.org/2000/svg">
<path d="M91.688 2.09511C91.688 1.38523 91.729 0.934275 92.2059 0.690457C92.7604 0.416879 93.3511 0.223626 93.9601 0.116512H93.9752C94.0097 0.116512 94.0118 0.00646973 93.9601 0.00646973H80.7701C80.7162 0.00646973 80.7183 0.107881 80.7529 0.116512H80.768C81.3761 0.225325 81.9659 0.419264 82.52 0.692614C82.999 0.934275 83.0379 1.38955 83.0379 2.09943V15.2807C83.0379 18.2864 81.3117 20.5951 77.9004 20.5951C74.4891 20.5951 72.7608 18.2864 72.7608 15.2807V2.10374C72.7608 1.3917 72.8018 0.934275 73.2786 0.690457C73.8324 0.416882 74.4224 0.223625 75.0307 0.116512H75.0479C75.0825 0.116512 75.0825 0.00646973 75.0307 0.00646973H62.5787C62.5247 0.00646973 62.5269 0.107881 62.5614 0.116512H62.5765C62.9559 0.192538 63.3082 0.368307 63.5971 0.625726C64.0092 0.975271 64.1149 1.38955 64.1149 2.09943V15.0455C64.1149 21.2899 67.5327 26.5935 77.9026 26.5935C88.2724 26.5935 91.6902 21.2899 91.6902 15.0455L91.688 2.09511Z" fill="white"/>
<path d="M10.6322 4.93031H14.6412C17.252 4.93031 18.7861 5.33596 18.7861 7.71157C18.7861 9.25432 17.8345 10.6309 14.7469 10.6309H10.6322V4.93031ZM10.6322 14.668H14.1082C16.4234 14.668 19.2586 14.668 19.2586 17.8743C19.2586 20.2477 17.2282 21.0806 14.4988 21.0806H10.6322V14.668ZM2.30783 2.09511V24.0258C2.30783 24.7379 2.26468 25.1975 1.78783 25.4391C1.23172 25.7131 0.639698 25.907 0.0293113 26.0152V26.0152C-0.00736939 26.0152 -0.00952714 26.1253 0.044415 26.1253H17.7828C25.2635 26.1253 28.4115 23.1563 28.4115 18.5259C28.4115 15.1016 26.817 12.9806 23.6646 12.1952C23.6452 12.1952 23.643 12.1456 23.6646 12.1391C25.6756 11.5113 27.5247 10.0376 27.5247 6.47306C27.5247 1.63768 24.2601 0 17.1355 0H0.0401004C-0.0116841 0 -0.00952635 0.101411 0.0249966 0.110042H0.0401004C0.649026 0.217468 1.23964 0.410707 1.7943 0.683986C2.27115 0.934278 2.30783 1.38308 2.30783 2.09511Z" fill="white"/>
<path d="M49.3152 0.116512C49.7575 0.116512 50.4437 0.148878 50.3941 1.19536C50.3552 2.09727 45.7183 8.66527 45.1768 9.65133C43.5499 7.18509 39.9983 2.17495 39.953 1.19536C39.925 0.392696 40.6003 0.116512 41.1872 0.116512H41.2023C41.2368 0.116512 41.2411 0.00646973 41.1872 0.00646973H28.377C28.3252 0.00646973 28.3274 0.107881 28.3619 0.116512H28.377C28.8813 0.194307 29.3691 0.355456 29.8205 0.593361C29.9342 0.656129 30.0425 0.728304 30.1442 0.809129C30.6202 1.23422 31.031 1.72715 31.3633 2.27204L40.3996 15.6497V24.028C40.3996 24.7379 40.3587 25.1975 39.8818 25.4413C39.3265 25.7129 38.7361 25.9061 38.1276 26.0152H38.1125C38.078 26.026 38.0758 26.1253 38.1298 26.1253H52.0296C52.0835 26.1253 52.0835 26.026 52.0468 26.0152H52.0296C51.4218 25.9061 50.8321 25.713 50.2775 25.4413C49.7985 25.1975 49.7597 24.74 49.7597 24.0302V15.7058L58.8069 2.27204C59.1393 1.72663 59.5501 1.233 60.026 0.806971C60.1284 0.718097 60.2366 0.635934 60.3496 0.560995C60.6533 0.340107 61.0016 0.188394 61.3702 0.116512H61.3853C61.422 0.116512 61.422 0.00646973 61.368 0.00646973H49.3131C49.2591 0.00646973 49.2613 0.107881 49.2979 0.116512H49.3152Z" fill="white"/>
</svg>
