<svg width="148" height="30" viewBox="0 0 148 30" xmlns="http://www.w3.org/2000/svg"><g fill="none" fill-rule="evenodd"><path d="M33 19.3118l11.469-14.501H33.1786V1.5152h15.7586v3.4155l-11.5285 14.441h11.7073v3.3556H33v-3.4155zm17.956-11.13h3.5813v14.5455h-3.5814V8.1818zm-.597-4.8485c0-.5696.2083-1.0655.625-1.4878.4167-.4222.9448-.6334 1.5843-.6334.6395 0 1.1773.2013 1.6133.604.436.4026.6541.9084.6541 1.5172 0 .6089-.218 1.1146-.654 1.5173-.4361.4026-.9739.604-1.6134.604s-1.1676-.2112-1.5843-.6335c-.4167-.4223-.625-.9182-.625-1.4878zm9.3546 4.9674V10.32h.0883c.1767-.2813.4073-.5676.6919-.859.2846-.2913.633-.5525 1.0451-.7836.4122-.231.8783-.4219 1.3984-.5726.5202-.1507 1.104-.226 1.7517-.226 1.001 0 1.9235.1959 2.7675.5877.844.3918 1.5701.9292 2.1785 1.6124.6085.683 1.0795 1.4868 1.4132 2.411.3337.9242.5005 1.9188.5005 2.9836 0 1.065-.162 2.0645-.4858 2.9988-.3238.9342-.785 1.748-1.3837 2.4411-.5986.6932-1.3248 1.2457-2.1786 1.6576-.8538.4119-1.8204.6178-2.8999.6178-1.001 0-1.9185-.211-2.7527-.6329-.8341-.4219-1.4769-.9945-1.9283-1.7178h-.0589V30h-3.5329V8.3007h3.3857zm8.2537 7.275c0-.5656-.0848-1.1262-.2546-1.6818-.1697-.5555-.4243-1.0555-.7637-1.5-.3395-.4444-.7688-.803-1.288-1.0757-.5191-.2727-1.1281-.4091-1.827-.4091-.659 0-1.248.1414-1.7671.4242-.5192.2829-.9635.6465-1.3329 1.091-.3694.4444-.649.9494-.8386 1.515-.1897.5658-.2846 1.1314-.2846 1.697 0 .5657.0949 1.1263.2846 1.6819.1897.5555.4692 1.0555.8386 1.5.3694.4444.8137.803 1.3329 1.0757.5191.2728 1.1082.4091 1.7671.4091.6989 0 1.3079-.1414 1.827-.4242.5192-.2828.9485-.6465 1.288-1.091.3394-.4444.594-.9494.7637-1.515.1698-.5657.2546-1.1314.2546-1.697zm5.0245-14.0605h8.1898c.7913 0 1.5727.0948 2.3442.2846.7715.1897 1.459.4993 2.0623.9288.6034.4294 1.093.9837 1.4688 1.6628.376.679.5638 1.498.5638 2.4567 0 1.1985-.3363 2.1872-1.0089 2.9661-.6726.779-1.5529 1.3383-2.6409 1.6778v.06c1.3254.1797 2.4134.699 3.264 1.558.8507.8588 1.276 2.0073 1.276 3.4454 0 1.1585-.2274 2.1322-.6824 2.9211-.455.789-1.0534 1.4232-1.7953 1.9025-.7418.4794-1.5925.824-2.5519 1.0337a13.647 13.647 0 0 1-2.9228.3146h-7.5667V1.5152zM76.573 10h3.3287c1.2483 0 2.1994-.247 2.8532-.7411.6539-.494.9808-1.1957.9808-2.1047 0-.9487-.3368-1.6206-1.0105-2.0159-.6737-.3952-1.7238-.5928-3.1504-.5928h-3.0018V10zm0 9.394h3.36c.4758 0 .9911-.0344 1.5462-.103.555-.0687 1.0655-.2109 1.5313-.4266.4659-.2158.8524-.5296 1.1597-.9415.3072-.4119.4608-.961.4608-1.6475 0-1.0984-.3766-1.8633-1.1299-2.2948-.7532-.4315-1.893-.6473-3.4194-.6473H76.573v6.0606zm12.8332-3.9991c0-1.1334.2031-2.1624.6095-3.087.4063-.9246.9563-1.715 1.65-2.3711.6937-.6562 1.5162-1.1632 2.4676-1.5211.9514-.358 1.9622-.537 3.0325-.537 1.0703 0 2.081.179 3.0325.537.9513.3579 1.7739.8649 2.4676 1.521.6937.6562 1.2437 1.4466 1.65 2.3712.4063.9246.6095 1.9536.6095 3.087 0 1.1334-.2032 2.1673-.6095 3.1019-.4063.9345-.9563 1.7348-1.65 2.401-.6937.666-1.5163 1.188-2.4676 1.5658-.9514.3778-1.9622.5667-3.0325.5667-1.0703 0-2.0811-.1889-3.0325-.5667-.9514-.3778-1.774-.8997-2.4676-1.5658-.6937-.6662-1.2437-1.4665-1.65-2.401-.4064-.9346-.6095-1.9685-.6095-3.102zm3.5813.1809c0 .5656.0852 1.1313.2555 1.697.1704.5656.4259 1.0706.7666 1.515.3406.4445.7715.8082 1.2925 1.091.521.2828 1.1423.4242 1.8637.4242.7214 0 1.3426-.1414 1.8637-.4242.521-.2828.9518-.6465 1.2925-1.091.3407-.4444.5962-.9494.7665-1.515.1704-.5657.2555-1.1314.2555-1.697 0-.5657-.0851-1.1263-.2555-1.6819-.1703-.5555-.4258-1.0555-.7665-1.5-.3407-.4444-.7715-.803-1.2925-1.0757-.521-.2727-1.1423-.4091-1.8637-.4091-.7214 0-1.3427.1364-1.8637.409-.521.2728-.9519.6314-1.2925 1.0758-.3407.4445-.5962.9445-.7666 1.5-.1703.5556-.2555 1.1162-.2555 1.6819zm12.8824-.181c0-1.1333.2031-2.1623.6094-3.0869.4064-.9246.9564-1.715 1.65-2.3711.6938-.6562 1.5163-1.1632 2.4677-1.5211.9513-.358 1.9622-.537 3.0325-.537 1.0703 0 2.081.179 3.0324.537.9514.3579 1.774.8649 2.4677 1.521.6937.6562 1.2437 1.4466 1.65 2.3712.4063.9246.6095 1.9536.6095 3.087 0 1.1334-.2032 2.1673-.6095 3.1019-.4063.9345-.9563 1.7348-1.65 2.401-.6938.666-1.5163 1.188-2.4677 1.5658-.9513.3778-1.9621.5667-3.0324.5667s-2.0812-.1889-3.0325-.5667c-.9514-.3778-1.774-.8997-2.4676-1.5658-.6937-.6662-1.2437-1.4665-1.65-2.401-.4064-.9346-.6095-1.9685-.6095-3.102zm3.5813.181c0 .5656.0852 1.1313.2555 1.697.1704.5656.4259 1.0706.7665 1.515.3407.4445.7716.8082 1.2926 1.091.521.2828 1.1422.4242 1.8637.4242.7214 0 1.3426-.1414 1.8636-.4242.521-.2828.952-.6465 1.2926-1.091.3407-.4444.5962-.9494.7665-1.515.1703-.5657.2555-1.1314.2555-1.697 0-.5657-.0852-1.1263-.2555-1.6819-.1703-.5555-.4258-1.0555-.7665-1.5-.3407-.4444-.7715-.803-1.2926-1.0757-.521-.2727-1.1422-.4091-1.8636-.4091-.7215 0-1.3427.1364-1.8637.409-.521.2728-.9519.6314-1.2926 1.0758-.3406.4445-.5961.9445-.7665 1.5-.1703.5556-.2555 1.1162-.2555 1.6819zM122.583 0h3.5662v14.3699h.0892l5.4087-6.0726h4.5766l-6.1814 6.5235 6.5677 7.9065h-4.7252l-5.6464-7.3954h-.0892v7.3954h-3.5662V0zm23.136 12.114c-.312-.4175-.7408-.7804-1.2868-1.0886-.5459-.3082-1.1405-.4623-1.7839-.4623-.5654 0-1.082.1193-1.55.358-.4679.2385-.7018.6362-.7018 1.193 0 .5567.2583.9494.775 1.178.5166.2287 1.2721.4624 2.2664.701.5264.1193 1.0577.2784 1.5939.4772.5361.1988 1.0235.4623 1.4622.7904.4387.328.7945.7357 1.0674 1.2228.273.4872.4095 1.0787.4095 1.7747 0 .8749-.1609 1.6155-.4826 2.222s-.7506 1.0986-1.2867 1.4764c-.5362.3778-1.16.6512-1.8717.8202-.7116.169-1.4476.2535-2.208.2535-1.0918 0-2.1543-.2038-3.1877-.6114-1.0333-.4076-1.8911-.9892-2.5735-1.7448l2.3103-2.2071c.39.517.8969.9444 1.5208 1.2825.6239.338 1.316.507 2.0763.507.2535 0 .5118-.0298.775-.0895.2632-.0596.507-.154.7311-.2833a1.5268 1.5268 0 0 0 .541-.522c.1365-.2187.2048-.4871.2048-.8053 0-.5965-.268-1.024-.8042-1.2825-.5362-.2585-1.3404-.517-2.4127-.7755a11.43 11.43 0 0 1-1.5354-.4623c-.4971-.1888-.9407-.4374-1.3306-.7456-.39-.3082-.7019-.691-.9358-1.1483-.234-.4573-.351-1.024-.351-1.7 0-.7954.1609-1.4814.4826-2.058.3216-.5767.7457-1.049 1.2721-1.4168.5264-.3678 1.121-.6412 1.784-.8202.6628-.179 1.3452-.2684 2.047-.2684 1.0139 0 2.0033.179 2.9684.5369.965.3579 1.7303.9047 2.2957 1.6404l-2.281 2.058z" fill="#606879"></path><path d="M0 11.5319c0-.5537.4394-1.0025 1.0064-1.0025h1.8177c.5559 0 1.0065.4558 1.0065 1.0025v10.9975H0V11.532z" fill="#FF194A"></path><path d="M6.6165 6.5972c0-.5572.4394-1.009 1.0064-1.009h1.8177c.5559 0 1.0065.4532 1.0065 1.009v15.9322H6.6165V6.5972z" fill="#0064FF"></path><path d="M13.5812 8.3487c0-.55.4394-.9958 1.0064-.9958h1.8177c.5559 0 1.0065.4542 1.0065.9958v14.1807h-3.8306V8.3487z" fill="#00D478"></path><path d="M20.1976 2.0095c0-.5575.4395-1.0095 1.0065-1.0095h1.8177c.5558 0 1.0064.4497 1.0064 1.0095v20.52h-3.8306v-20.52z" fill="#9453F5"></path></g></svg>