<svg width="423" height="60" viewBox="0 0 423 60" fill="none" xmlns="http://www.w3.org/2000/svg">
<path d="M30.85 27.9159C29.8496 29.61 26.4497 30.1473 20.2217 30.1473H19.5287V10.5328C20.8367 10.2252 23.0672 9.83958 26.7572 9.83958C32.7557 9.83958 36.1556 9.73126 38.5376 12.7295C40.1531 14.8829 40.0622 14.4237 41.9072 18.8084H45.2118L44.4452 5.76245H0V8.76073L2.68962 9.37598C5.07169 9.91324 5.76465 10.2209 5.76465 14.9133V49.909C5.76465 54.5234 5.07169 54.909 2.68962 55.4463L0 55.9836V59.0598H26.3718V55.9836L22.7597 55.3683C19.9142 54.831 19.5287 54.5234 19.5287 49.909V34.3717H20.2217C26.5277 34.3717 29.698 34.6013 30.85 36.6811C32.0801 38.6828 32.6951 40.143 33.466 42.8336H36.619V22.0667H33.466C32.6994 24.8353 32.0844 26.1438 30.85 27.9116V27.9159Z" fill="#343850"/>
<path d="M86.9895 13.3796C90.9091 13.3796 94.14 10.455 94.14 6.68979C94.14 2.92462 90.9091 0 86.9895 0C82.836 0 79.6094 2.76864 79.6094 6.68979C79.6094 10.6109 82.8404 13.3796 86.9895 13.3796Z" fill="#343850"/>
<path d="M93.3716 51.144V29.8398C93.3716 23.6872 93.9086 21.0702 93.9866 18.8389L92.9082 18.1456L75.9175 19.9134V22.3744L78.607 24.0685C80.8375 25.5287 81.223 25.7626 81.223 28.9905V52.2098C81.223 54.0123 79.2957 55.4724 76.918 55.4724C74.5402 55.4724 72.6129 54.0123 72.6129 52.2098V28.6049C72.6129 21.1439 69.7934 18.0676 59.9489 18.0676C49.3378 18.0676 42.6507 21.4515 42.6507 26.6032C42.6507 29.6794 44.2662 31.4472 47.8783 31.4472C52.0318 31.4472 53.8768 29.4455 54.2579 24.6014C54.4875 22.3701 56.0899 21.7548 57.3329 21.7548C60.46 21.7548 60.46 23.0633 60.46 29.2938V35.0607L54.2319 36.4429C41.9318 39.3675 38.0078 42.981 38.0078 49.6708C38.0078 56.3606 42.6204 59.9785 49.9269 59.9785C55.1544 59.9785 58.7708 57.7471 60.6895 55.2861H61.075C61.9195 58.2107 64.6871 59.9785 69.148 59.9785C73.609 59.9785 74.4362 59.0556 78.776 59.0556H98.3653V56.0573L96.1348 55.5201C93.6748 54.9048 93.3673 54.5972 93.3673 51.1353L93.3716 51.144ZM60.4686 51.7592C59.702 53.0677 57.9306 54.0686 55.3926 54.0686C52.2396 54.0686 49.8575 52.8381 49.8575 47.9161C49.8575 42.3788 51.9321 40.377 56.6226 40.0694L60.4686 39.6838V51.7592Z" fill="#343850"/>
<path d="M167.853 56.0744C165.766 56.0311 163.089 54.9263 163.089 52.5389V51.1481V28.3794C163.089 21.5336 159.477 18.1497 152.634 18.1497C146.943 18.1497 141.715 20.5328 137.488 23.3794H137.181C137.181 23.3794 137.64 19.9955 137.64 15.8404V9.76584C137.64 4.61418 138.255 0.922661 138.255 0.922661L137.176 0.155762L120.03 1.6159V4.30655L122.953 5.76669C125.184 6.84555 125.491 7.22684 125.491 10.8447V51.1481C125.491 51.1481 125.487 51.1568 125.482 51.1611V52.5996C125.482 54.0251 124.144 55.2079 122.373 55.4809C120.779 55.7885 118.891 55.8925 117.838 55.7192C113.966 55.0866 112.896 52.227 112.896 48.4574V24.6142H122.351L123.659 19.1549H112.896V8.69564H107.591C105.36 15.2338 101.826 19.7702 95.6719 21.8499V24.6186H100.67V49.5406C100.67 57.0017 104.745 59.9999 111.588 59.9999C118.046 59.9999 119.61 59.0771 123.815 59.0771H142.179V56.0788L140.104 55.6152C137.874 54.9999 137.644 54.8483 137.644 51.1524V26.8456C139.338 26.3083 142.335 25.3855 145.254 25.3855C149.173 25.3855 150.867 27.0796 150.867 31.8456V51.1524C150.867 54.766 150.637 54.9999 148.407 55.6152L146.332 56.0788V59.0771H167.857V56.0831L167.853 56.0744Z" fill="#343850"/>
<path d="M230.717 9.37989L233.485 8.76463V5.76636H212.033L200.963 39.3756H200.733L189.741 5.76636H167.289V8.76463L169.979 9.37989C172.361 9.91715 173.054 10.2248 173.054 14.9172V52.4216C173.054 54.5187 170.975 56.0784 167.809 56.0784V59.0681H184.046V55.9918L181.664 55.4545C178.589 54.8393 178.052 54.4537 178.052 48.7647V11.9189H178.359L193.968 57.9112H199.659L214.112 11.9189H214.42V49.9129C214.42 54.5273 213.882 54.8349 211.422 55.4502L208.733 55.9875V59.0637H233.489V55.9875L230.722 55.4502C228.339 54.8349 227.725 54.5273 227.725 49.9129V14.9172C227.725 10.2248 228.417 9.99514 230.722 9.37989H230.717Z" fill="#343850"/>
<path d="M267.085 49.142V28.6047C267.085 21.1436 261.472 18.0674 251.632 18.0674C241.021 18.0674 234.334 21.4513 234.334 26.6029C234.334 29.6792 235.949 31.447 239.561 31.447C243.715 31.447 245.56 29.4452 245.941 24.6012C246.17 22.3698 246.556 21.7546 249.016 21.7546C253.707 21.7546 254.937 23.0631 254.937 29.2936V35.0605L248.708 36.4426C236.408 39.3673 232.484 42.9808 232.484 49.6706C232.484 56.3604 237.097 59.9782 244.403 59.9782C249.631 59.9782 253.247 57.7469 255.166 55.2859H255.552C256.396 58.2105 259.164 59.9782 263.625 59.9782C268.086 59.9782 271.161 58.4401 272.698 57.3612V54.5926C271.468 54.5146 269.931 54.363 269.008 53.8214C267.393 53.0545 267.085 51.8976 267.085 49.129V49.142ZM254.937 51.759C254.17 53.0675 252.399 54.0683 249.861 54.0683C246.708 54.0683 244.325 52.8378 244.325 47.9158C244.325 42.3785 246.4 40.3768 251.091 40.0692L254.937 39.6836V51.759Z" fill="#343850"/>
<path d="M311.749 48.4527V24.6095H321.204L322.512 19.1502H311.749V8.69092H306.443C304.213 15.2291 301.056 19.1502 294.524 19.1502H286.529V8.69092H281.224C278.993 15.2291 275.459 19.7655 269.305 21.8452V24.6138H274.303V49.5359C274.303 56.9969 278.378 59.9952 285.221 59.9952C291.679 59.9952 295.676 57.9198 297.448 55.9961V52.9198C296.062 53.2274 293.602 53.7647 291.757 53.7647C287.837 53.7647 286.529 52.2266 286.529 48.4571V24.6138H299.522V49.5359C299.522 56.9969 303.598 59.9952 310.441 59.9952C316.899 59.9952 320.896 57.9198 322.667 55.9961V52.9198C321.282 53.2274 318.822 53.7647 316.976 53.7647C313.057 53.7647 311.749 52.2266 311.749 48.4571V48.4527Z" fill="#343850"/>
<path d="M333.047 38.1452H359.263C359.033 23.6088 352.342 18.0715 341.428 18.0715C330.514 18.0715 320.977 25.6842 320.977 38.9165C320.977 52.1487 327.742 59.9911 341.428 59.9911C349.423 59.9911 355.421 56.5292 358.111 53.6825V50.2207C355.036 51.6808 351.424 53.1453 346.348 53.1453C338.431 53.1453 333.584 49.4538 333.047 38.1452ZM340.891 21.9147C345.811 21.9147 347.041 24.4537 347.041 33.6045L333.047 34.2977C333.433 25.2206 336.659 21.9147 340.891 21.9147Z" fill="#343850"/>
<path d="M386.241 18.1454C381.706 18.1454 377.713 21.3776 375.331 23.9903H374.945L375.482 18.9123L374.404 18.1411L358.18 19.9088V22.3698L360.869 24.0639C363.1 25.5241 363.485 25.7581 363.485 28.986V51.1351C363.485 54.441 363.178 54.8266 360.64 55.5198L358.409 56.0571V59.0554H380.935V56.0571L378.167 55.5198C375.937 55.1342 375.629 54.7529 375.629 51.1351V27.7511C375.629 27.7511 377.314 25.4418 378.696 25.4418C379.54 25.4418 380.233 25.6714 380.77 26.5206C382.308 28.9036 383.23 29.6749 386.843 29.6749C390.147 29.6749 392.148 27.4435 392.148 23.83C392.148 20.2164 389.84 18.1367 386.228 18.1367L386.241 18.1454Z" fill="#343850"/>
<path d="M409.609 33.5308C403.073 31.2215 400.999 29.6834 400.999 27.0707C400.999 23.6868 403.459 21.9927 407.378 21.9927C410.531 21.9927 411.532 22.8376 412.606 23.9164C414.143 25.6842 415.451 27.3003 417.067 29.9173H419.912L419.527 19.458C417.145 18.6131 413.221 18.0715 408.686 18.0715C398.075 18.0715 392.081 23.6088 392.081 30.9918C392.081 37.3004 396.464 40.8359 403.537 43.4529C410.302 45.9919 413.147 47.374 413.147 50.9919C413.147 54.3758 410.609 56.0699 406.46 56.0699C403 56.0699 400.847 54.991 399.388 53.4529C397.313 51.1435 396.464 49.6834 394.927 46.7631H391.852L392.545 58.5309C395.698 59.2978 400.388 59.9911 405.001 59.9911C416.3 59.9911 422.684 54.2978 422.684 46.2995C422.684 40.2986 418.765 36.7631 409.613 33.5308H409.609Z" fill="#343850"/>
</svg>
