<svg width="187" height="44" viewBox="0 0 187 44" fill="none" xmlns="http://www.w3.org/2000/svg">
<path fill-rule="evenodd" clip-rule="evenodd" d="M59.8749 19.9608V28.9863H56.2442V19.9608H54.8929V17.3884H56.2442V17.0087C56.2442 14.0559 58.2282 13.1077 60.5926 13.1077C61.6484 13.1077 62.2186 13.2128 62.4925 13.2758V15.616C62.3241 15.5953 62.0492 15.553 61.416 15.553C60.5926 15.553 59.8749 15.9544 59.8749 17.1565V17.3884H62.1969V19.9608H59.8749Z" fill="#9B8542"/>
<path fill-rule="evenodd" clip-rule="evenodd" d="M69.835 26.0344V23.9681L68.4623 24.1573C67.1753 24.3471 66.6259 24.7268 66.6259 25.5699C66.6259 26.35 67.0698 26.8772 68.0832 26.8772C68.8848 26.8772 69.4549 26.5405 69.835 26.0344ZM70.0882 27.6996C69.4973 28.522 68.5685 29.2597 66.9005 29.2597C64.7468 29.2597 63.1219 28.101 63.1219 25.8025C63.1219 23.3772 64.8316 22.491 67.6814 22.1123L69.835 21.8371C69.835 20.3613 69.1804 19.8969 67.6389 19.8969C66.0564 19.8969 65.0845 20.2986 64.1776 20.7834L64.03 20.741V18.0201C64.9368 17.493 66.3303 17.1133 68.2515 17.1133C71.6293 17.1133 73.4449 18.4215 73.4449 21.8371V28.9868H70.3203L70.0882 27.6996Z" fill="#9B8542"/>
<path fill-rule="evenodd" clip-rule="evenodd" d="M75.9226 28.9866H79.5535V17.3887H75.9226V28.9866ZM75.9226 16.2076H79.5328V13.2761H75.9226V16.2076Z" fill="#9B8542"/>
<path fill-rule="evenodd" clip-rule="evenodd" d="M82.6989 26.1394V19.9609H81.39V17.3885H82.6989V15.5324L86.3296 14.9629V17.3885H88.6308V19.9609H86.3296V25.4438C86.3296 26.2239 86.7096 26.4981 87.4698 26.4981C87.8706 26.4981 88.2932 26.413 88.5463 26.35L88.6733 26.413V28.9234C88.1238 29.0916 87.2374 29.2183 86.3088 29.2183C84.2824 29.2183 82.6989 28.5644 82.6989 26.1394Z" fill="#9B8542"/>
<path fill-rule="evenodd" clip-rule="evenodd" d="M94.4 28.9861H90.769V13.7607L94.4 13.1492V18.8012C95.1816 17.916 96.258 17.1129 97.9254 17.1129C100.121 17.1129 101.578 18.3367 101.578 21.1838V28.9861H97.9254V21.7736C97.9254 20.4664 97.2497 19.9816 96.2788 19.9816C95.5403 19.9816 94.9701 20.2352 94.4 20.6779V28.9861Z" fill="#9B8542"/>
<path fill-rule="evenodd" clip-rule="evenodd" d="M111.268 28.9865H107.637V17.3885H110.824L111.057 18.8429C111.795 17.9791 112.83 17.1133 114.477 17.1133C115.891 17.1133 117.01 17.6621 117.579 18.9694C118.361 17.9574 119.48 17.1133 121.253 17.1133C123.301 17.1133 124.8 18.3371 124.8 21.1838V28.9865H121.147V21.7533C121.147 20.4461 120.577 19.982 119.712 19.982C119.016 19.982 118.53 20.1922 118.023 20.6153V28.9865H114.392V21.7533C114.392 20.4461 113.821 19.982 112.956 19.982C112.26 19.982 111.775 20.1922 111.268 20.6153V28.9865Z" fill="#4D4D4F"/>
<path fill-rule="evenodd" clip-rule="evenodd" d="M133.412 26.0344V23.9681L132.04 24.1573C130.752 24.3471 130.203 24.7268 130.203 25.5699C130.203 26.35 130.647 26.8772 131.66 26.8772C132.462 26.8772 133.032 26.5405 133.412 26.0344ZM133.665 27.6996C133.074 28.522 132.146 29.2597 130.478 29.2597C128.324 29.2597 126.699 28.101 126.699 25.8025C126.699 23.3772 128.409 22.491 131.259 22.1123L133.412 21.8371C133.412 20.3613 132.757 19.8969 131.217 19.8969C129.634 19.8969 128.662 20.2986 127.755 20.7834L127.607 20.741V18.0201C128.514 17.493 129.908 17.1133 131.829 17.1133C135.207 17.1133 137.023 18.4215 137.023 21.8371V28.9868H133.898L133.665 27.6996Z" fill="#4D4D4F"/>
<path fill-rule="evenodd" clip-rule="evenodd" d="M143.515 29.2183C141.488 29.2183 139.904 28.5644 139.904 26.1394V19.9609H138.596V17.3885H139.904V15.5324L143.535 14.9629V17.3885H145.837V19.9609H143.535V25.4438C143.535 26.2239 143.916 26.4981 144.676 26.4981C145.077 26.4981 145.499 26.413 145.752 26.35L145.879 26.413V28.9234C145.33 29.0916 144.443 29.2183 143.515 29.2183Z" fill="#4D4D4F"/>
<path fill-rule="evenodd" clip-rule="evenodd" d="M148.514 26.1394V19.9609H147.205V17.3885H148.514V15.5324L152.145 14.9629V17.3885H154.446V19.9609H152.145V25.4438C152.145 26.2239 152.525 26.4981 153.286 26.4981C153.686 26.4981 154.109 26.413 154.362 26.35L154.489 26.413V28.9234C153.94 29.0916 153.053 29.2183 152.124 29.2183C150.098 29.2183 148.514 28.5644 148.514 26.1394Z" fill="#4D4D4F"/>
<path fill-rule="evenodd" clip-rule="evenodd" d="M159.355 21.7957H163.429C163.344 20.2986 162.774 19.5606 161.572 19.5606C160.389 19.5606 159.609 20.2352 159.355 21.7957ZM162.331 29.2597C157.877 29.2597 155.745 26.9195 155.745 23.0822C155.745 19.5813 158.046 17.1133 161.55 17.1133C164.95 17.1133 167.187 19.1809 166.744 24.0728H159.313C159.587 25.8228 160.643 26.5402 162.669 26.5402C164.295 26.5402 165.35 26.1818 166.363 25.6967L166.511 25.7601V28.3959C165.731 28.8173 164.337 29.2597 162.331 29.2597Z" fill="#4D4D4F"/>
<path fill-rule="evenodd" clip-rule="evenodd" d="M172.49 21.6265V28.9868H168.859V17.3885H172.046L172.299 19.3697C172.912 18.2947 173.988 17.198 175.53 17.198C175.889 17.198 176.226 17.2407 176.459 17.2821V20.699L176.332 20.7834C176.057 20.7193 175.677 20.6779 175.319 20.6779C174.01 20.6779 173.165 20.9102 172.49 21.6265Z" fill="#4D4D4F"/>
<path fill-rule="evenodd" clip-rule="evenodd" d="M177.766 28.2487V25.5278L177.893 25.4648C178.842 26.1824 180.13 26.6452 181.524 26.6452C182.664 26.6452 183.191 26.2659 183.191 25.6549C183.191 25.1068 182.875 24.9376 181.84 24.6847L180.806 24.4325C178.969 23.989 177.723 22.9347 177.723 20.8884C177.723 18.5909 179.434 17.0925 182.262 17.0925C183.803 17.0925 184.944 17.3454 185.83 17.7251V20.3399L185.704 20.4037C184.901 19.9819 183.698 19.6443 182.367 19.6443C181.271 19.6443 180.933 19.9819 180.933 20.5304C180.933 21.0576 181.249 21.2902 182.03 21.479L183.065 21.7326C185.429 22.3228 186.568 23.1029 186.568 25.2325C186.568 27.7626 184.754 29.2393 181.819 29.2393C179.856 29.2393 178.694 28.8173 177.766 28.2487Z" fill="#4D4D4F"/>
<path fill-rule="evenodd" clip-rule="evenodd" d="M31.6997 29.2614V22.93C31.6997 21.4052 31.0201 20.5824 29.8095 20.5824C28.599 20.5824 27.8556 21.4052 27.8556 22.93V29.2614H24.6273V22.93C24.6273 21.4052 23.9477 20.5824 22.7372 20.5824C21.5266 20.5824 20.7832 21.4052 20.7832 22.93V29.2614H17.555V17.8717H20.7832V19.4812C21.5266 18.5282 22.5032 17.6599 24.139 17.6599C25.6255 17.6599 26.7511 18.3562 27.3458 19.4996C28.3439 18.3351 29.5333 17.6599 31.0839 17.6599C33.4838 17.6599 34.928 19.1001 34.928 21.8314V29.2614H31.6997Z" fill="#9B8542"/>
<path fill-rule="evenodd" clip-rule="evenodd" d="M15.1259 15.0681C14.3695 15.0664 13.9362 15.4532 13.9338 16.3155L13.9328 17.8681L17.9461 17.8744L17.94 20.5473L13.9701 20.5412L13.9499 28.73L10.6636 29.331L10.6838 20.5335L9.3215 20.5305L9.32788 17.8359L10.6901 17.839L10.6918 16.0063C10.6975 13.4626 11.9759 12.3016 14.2889 12.3069C15.327 12.3096 16.0183 12.4401 16.6234 12.6355L16.6171 15.3518C16.1418 15.1782 15.6881 15.0694 15.1259 15.0681Z" fill="#9B8542"/>
<path fill-rule="evenodd" clip-rule="evenodd" d="M0 22C0 34.1509 9.87944 44 22.0666 44C34.2533 44 44.1328 34.1509 44.1328 22C44.1328 9.84979 34.2533 0 22.0666 0C9.87944 0 0 9.84979 0 22ZM22.0666 3.63215C32.2249 3.63215 40.4897 11.8718 40.4897 22C40.4897 32.1285 32.2249 40.3682 22.0666 40.3682C11.9079 40.3682 3.64308 32.1285 3.64308 22C3.64308 11.8718 11.9079 3.63215 22.0666 3.63215Z" fill="#9B8542"/>
<path fill-rule="evenodd" clip-rule="evenodd" d="M7.90847 34.3465C4.19894 34.3465 1.63116 30.9194 1.63116 27.8086L4.78928 28.0833C5.68504 30.4219 6.2096 31.2002 7.92559 31.2002C9.28583 31.2002 10.4014 30.4249 10.6541 29.1972C10.6632 29.1189 10.6682 28.7308 10.6655 28.5832V28.3102L13.9525 28.3205L13.9552 28.5257C13.9636 29.0001 13.9341 29.4947 13.8589 29.8594C13.2984 32.5838 10.8031 34.3465 7.90847 34.3465Z" fill="#9B8542"/>
</svg>
