<svg width="394" height="100" viewBox="0 0 394 100" fill="none" xmlns="http://www.w3.org/2000/svg">
<path d="M131.165 81.0227C125.817 81.0227 121.109 79.9242 117.042 77.7273C112.975 75.4545 109.849 72.3485 107.665 68.4091C105.481 64.4697 104.389 60.0758 104.389 55.2273H120.432C120.582 58.1061 121.599 60.5303 123.482 62.5C125.365 64.3939 127.926 65.3409 131.165 65.3409C134.403 65.3409 136.964 64.3561 138.847 62.3864C140.806 60.3409 141.785 57.7652 141.785 54.6591V0H157.941V54.6591C157.941 59.6591 156.849 64.1667 154.664 68.1818C152.48 72.197 149.354 75.3409 145.287 77.6136C141.295 79.8864 136.588 81.0227 131.165 81.0227Z" fill="white"/>
<path d="M194.65 81.0227C190.056 81.0227 185.989 80 182.449 77.9545C178.984 75.8333 176.272 72.8788 174.314 69.0909C172.356 65.2273 171.377 60.7955 171.377 55.7955V21.5909H186.742V54.4318C186.742 57.8409 187.834 60.7576 190.018 63.1818C192.202 65.5303 194.914 66.7045 198.153 66.7045C201.467 66.7045 204.178 65.5303 206.287 63.1818C208.471 60.8333 209.564 57.9167 209.564 54.4318V21.5909H224.929V79.5455H213.405L210.919 73.8636H210.354C209.149 75.3788 207.153 76.9697 204.367 78.6364C201.58 80.2273 198.341 81.0227 194.65 81.0227Z" fill="white"/>
<path d="M299.373 20.1136C305.775 20.1136 310.821 22.2727 314.512 26.5909C318.203 30.9091 320.048 36.9697 320.048 44.7727V79.5455H304.683V45.3409C304.683 42.0076 303.817 39.3561 302.084 37.3864C300.427 35.4167 298.318 34.4318 295.757 34.4318C293.196 34.4318 291.05 35.4167 289.317 37.3864C287.66 39.3561 286.832 42.0076 286.832 45.3409V79.5455H271.467V45.3409C271.467 42.0076 270.601 39.3561 268.868 37.3864C267.211 35.4167 265.102 34.4318 262.541 34.4318C259.98 34.4318 257.834 35.4167 256.101 37.3864C254.444 39.3561 253.616 42.0076 253.616 45.3409V79.5455H238.251V21.5909H249.775L252.26 27.2727H252.825C253.88 25.7576 255.612 24.2045 258.022 22.6136C260.508 20.947 263.408 20.1136 266.722 20.1136C270.638 20.1136 273.915 20.947 276.551 22.6136C279.187 24.2803 281.221 26.1742 282.652 28.2955C284.233 26.1742 286.531 24.2803 289.543 22.6136C292.556 20.947 295.833 20.1136 299.373 20.1136Z" fill="white"/>
<path d="M332.805 100V21.5909H344.329L346.814 27.2727H347.379C348.66 25.6818 350.731 24.0909 353.593 22.5C356.455 20.9091 359.845 20.1136 363.761 20.1136C368.431 20.1136 372.8 21.4394 376.867 24.0909C381.009 26.7424 384.286 30.4167 386.696 35.1136C389.182 39.7348 390.424 44.8864 390.424 50.5682C390.424 56.25 389.182 61.4394 386.696 66.1364C384.286 70.7576 381.009 74.3939 376.867 77.0455C372.8 79.697 368.431 81.0227 363.761 81.0227C361.276 81.0227 358.941 80.6061 356.757 79.7727C354.648 79.0151 352.878 78.1439 351.447 77.1591C350.091 76.1742 349.187 75.303 348.735 74.5455H348.17V100H332.805ZM361.615 66.7045C364.025 66.7045 366.247 66.0227 368.28 64.6591C370.314 63.2955 371.933 61.4015 373.139 58.9773C374.419 56.4773 375.059 53.6742 375.059 50.5682C375.059 47.4621 374.419 44.697 373.139 42.2727C371.933 39.7727 370.314 37.8409 368.28 36.4773C366.247 35.1136 364.025 34.4318 361.615 34.4318C359.204 34.4318 356.983 35.1136 354.949 36.4773C352.915 37.8409 351.258 39.7727 349.978 42.2727C348.773 44.697 348.17 47.4621 348.17 50.5682C348.17 53.6742 348.773 56.4773 349.978 58.9773C351.258 61.4015 352.915 63.2955 354.949 64.6591C356.983 66.0227 359.204 66.7045 361.615 66.7045Z" fill="white"/>
<path fill-rule="evenodd" clip-rule="evenodd" d="M34.6461 0.880694C37.7651 2.69368 38.8338 6.70902 37.033 9.8492L12.1696 53.2064C10.3689 56.3466 6.38063 57.4225 3.26164 55.6095C0.142644 53.7966 -0.926001 49.7812 0.87475 46.641L25.7381 3.2838C27.5389 0.143614 31.5271 -0.932293 34.6461 0.880694Z" fill="white"/>
<path fill-rule="evenodd" clip-rule="evenodd" d="M63.2456 1.60851C66.3645 3.4215 67.4332 7.43684 65.6324 10.577L40.7691 53.9343C38.9683 57.0744 34.9801 58.1504 31.8611 56.3374C28.7421 54.5244 27.6734 50.509 29.4742 47.3689L54.3376 4.01162C56.1383 0.871434 60.1266 -0.204472 63.2456 1.60851Z" fill="white"/>
<path fill-rule="evenodd" clip-rule="evenodd" d="M77.8414 25.4023C80.9604 27.2153 82.029 31.2306 80.2283 34.3708L55.3649 77.7281C53.5642 80.8682 49.5759 81.9442 46.4569 80.1312C43.3379 78.3182 42.2693 74.3028 44.0701 71.1627L68.9334 27.8054C70.7342 24.6652 74.7224 23.5893 77.8414 25.4023Z" fill="white"/>
</svg>
