<svg width="187" height="44" viewBox="0 0 187 44" fill="none" xmlns="http://www.w3.org/2000/svg">
<path fill-rule="evenodd" clip-rule="evenodd" d="M59.8748 19.9609V28.9864H56.2442V19.9609H54.8928V17.3885H56.2442V17.0088C56.2442 14.056 58.2282 13.1078 60.5926 13.1078C61.6484 13.1078 62.2186 13.2129 62.4924 13.2759V15.6162C62.3241 15.5955 62.0492 15.5531 61.4159 15.5531C60.5926 15.5531 59.8748 15.9545 59.8748 17.1566V17.3885H62.1968V19.9609H59.8748Z" fill="#C9A538"/>
<path fill-rule="evenodd" clip-rule="evenodd" d="M69.835 26.0345V23.9682L68.4622 24.1574C67.1753 24.3472 66.6259 24.7269 66.6259 25.5701C66.6259 26.3501 67.0698 26.8773 68.0831 26.8773C68.8847 26.8773 69.4549 26.5406 69.835 26.0345ZM70.0882 27.6997C69.4973 28.5222 68.5684 29.2599 66.9004 29.2599C64.7468 29.2599 63.1218 28.1011 63.1218 25.8026C63.1218 23.3773 64.8316 22.4911 67.6813 22.1125L69.835 21.8372C69.835 20.3615 69.1803 19.897 67.6389 19.897C66.0564 19.897 65.0844 20.2987 64.1776 20.7835L64.03 20.7412V18.0203C64.9368 17.4931 66.3303 17.1134 68.2515 17.1134C71.6293 17.1134 73.4449 18.4216 73.4449 21.8372V28.9869H70.3203L70.0882 27.6997Z" fill="#C9A538"/>
<path fill-rule="evenodd" clip-rule="evenodd" d="M75.9226 28.9866H79.5536V17.3887H75.9226V28.9866ZM75.9226 16.2076H79.5329V13.2761H75.9226V16.2076Z" fill="#C9A538"/>
<path fill-rule="evenodd" clip-rule="evenodd" d="M82.6989 26.1396V19.9611H81.3899V17.3886H82.6989V15.5326L86.3295 14.963V17.3886H88.6308V19.9611H86.3295V25.4439C86.3295 26.224 86.7096 26.4982 87.4698 26.4982C87.8706 26.4982 88.2931 26.4132 88.5463 26.3501L88.6732 26.4132V28.9235C88.1238 29.0917 87.2373 29.2185 86.3088 29.2185C84.2824 29.2185 82.6989 28.5645 82.6989 26.1396Z" fill="#C9A538"/>
<path fill-rule="evenodd" clip-rule="evenodd" d="M94.4 28.9864H90.769V13.761L94.4 13.1494V18.8014C95.1816 17.9162 96.2581 17.1132 97.9254 17.1132C100.121 17.1132 101.578 18.337 101.578 21.184V28.9864H97.9254V21.7739C97.9254 20.4667 97.2497 19.9819 96.2788 19.9819C95.5403 19.9819 94.9702 20.2354 94.4 20.6782V28.9864Z" fill="#C9A538"/>
<path fill-rule="evenodd" clip-rule="evenodd" d="M111.267 28.9865H107.637V17.3885H110.824L111.057 18.8429C111.795 17.9791 112.83 17.1133 114.476 17.1133C115.891 17.1133 117.009 17.6621 117.579 18.9694C118.36 17.9574 119.48 17.1133 121.253 17.1133C123.301 17.1133 124.8 18.3371 124.8 21.1838V28.9865H121.147V21.7533C121.147 20.4461 120.577 19.982 119.711 19.982C119.015 19.982 118.53 20.1922 118.023 20.6153V28.9865H114.392V21.7533C114.392 20.4461 113.821 19.982 112.956 19.982C112.26 19.982 111.775 20.1922 111.267 20.6153V28.9865Z" fill="white"/>
<path fill-rule="evenodd" clip-rule="evenodd" d="M133.412 26.0345V23.9682L132.04 24.1574C130.752 24.3472 130.203 24.7269 130.203 25.5701C130.203 26.3501 130.647 26.8773 131.661 26.8773C132.462 26.8773 133.032 26.5406 133.412 26.0345ZM133.666 27.6997C133.074 28.5222 132.146 29.2599 130.478 29.2599C128.324 29.2599 126.699 28.1011 126.699 25.8026C126.699 23.3773 128.409 22.4911 131.259 22.1125L133.412 21.8372C133.412 20.3615 132.757 19.897 131.217 19.897C129.634 19.897 128.662 20.2987 127.755 20.7835L127.607 20.7412V18.0203C128.514 17.4931 129.908 17.1134 131.829 17.1134C135.207 17.1134 137.023 18.4216 137.023 21.8372V28.9869H133.898L133.666 27.6997Z" fill="white"/>
<path fill-rule="evenodd" clip-rule="evenodd" d="M143.515 29.2185C141.488 29.2185 139.904 28.5645 139.904 26.1396V19.9611H138.596V17.3886H139.904V15.5326L143.535 14.963V17.3886H145.837V19.9611H143.535V25.4439C143.535 26.224 143.915 26.4982 144.676 26.4982C145.076 26.4982 145.499 26.4132 145.752 26.3501L145.879 26.4132V28.9235C145.33 29.0917 144.443 29.2185 143.515 29.2185Z" fill="white"/>
<path fill-rule="evenodd" clip-rule="evenodd" d="M148.514 26.1396V19.9611H147.205V17.3886H148.514V15.5326L152.145 14.963V17.3886H154.446V19.9611H152.145V25.4439C152.145 26.224 152.525 26.4982 153.286 26.4982C153.686 26.4982 154.109 26.4132 154.362 26.3501L154.489 26.4132V28.9235C153.94 29.0917 153.053 29.2185 152.124 29.2185C150.098 29.2185 148.514 28.5645 148.514 26.1396Z" fill="white"/>
<path fill-rule="evenodd" clip-rule="evenodd" d="M159.355 21.7957H163.429C163.344 20.2986 162.774 19.5606 161.572 19.5606C160.389 19.5606 159.609 20.2352 159.355 21.7957ZM162.331 29.2597C157.877 29.2597 155.745 26.9195 155.745 23.0822C155.745 19.5813 158.046 17.1133 161.55 17.1133C164.95 17.1133 167.187 19.1809 166.744 24.0728H159.313C159.587 25.8228 160.643 26.5402 162.669 26.5402C164.295 26.5402 165.35 26.1818 166.363 25.6967L166.511 25.7601V28.3959C165.731 28.8173 164.337 29.2597 162.331 29.2597Z" fill="white"/>
<path fill-rule="evenodd" clip-rule="evenodd" d="M172.49 21.6266V28.9869H168.859V17.3886H172.046L172.299 19.3698C172.912 18.2948 173.988 17.1981 175.53 17.1981C175.889 17.1981 176.226 17.2408 176.459 17.2822V20.6991L176.332 20.7835C176.057 20.7194 175.677 20.6781 175.319 20.6781C174.01 20.6781 173.165 20.9103 172.49 21.6266Z" fill="white"/>
<path fill-rule="evenodd" clip-rule="evenodd" d="M177.766 28.2487V25.5278L177.893 25.4648C178.842 26.1824 180.13 26.6452 181.523 26.6452C182.664 26.6452 183.19 26.2659 183.19 25.6549C183.19 25.1068 182.875 24.9376 181.839 24.6847L180.806 24.4325C178.969 23.989 177.723 22.9347 177.723 20.8884C177.723 18.5909 179.434 17.0925 182.262 17.0925C183.803 17.0925 184.943 17.3454 185.83 17.7251V20.3399L185.704 20.4037C184.901 19.9819 183.698 19.6443 182.367 19.6443C181.27 19.6443 180.932 19.9819 180.932 20.5304C180.932 21.0576 181.249 21.2902 182.03 21.479L183.065 21.7326C185.429 22.3228 186.568 23.1029 186.568 25.2325C186.568 27.7626 184.753 29.2393 181.819 29.2393C179.855 29.2393 178.694 28.8173 177.766 28.2487Z" fill="white"/>
<path fill-rule="evenodd" clip-rule="evenodd" d="M31.6997 29.2614V22.93C31.6997 21.4052 31.0201 20.5824 29.8095 20.5824C28.599 20.5824 27.8556 21.4052 27.8556 22.93V29.2614H24.6273V22.93C24.6273 21.4052 23.9477 20.5824 22.7371 20.5824C21.5266 20.5824 20.7832 21.4052 20.7832 22.93V29.2614H17.5549V17.8717H20.7832V19.4812C21.5266 18.5282 22.5032 17.6599 24.139 17.6599C25.6254 17.6599 26.7511 18.3562 27.3458 19.4996C28.3439 18.3351 29.5333 17.6599 31.0838 17.6599C33.4838 17.6599 34.9279 19.1001 34.9279 21.8314V29.2614H31.6997Z" fill="#C9A538"/>
<path fill-rule="evenodd" clip-rule="evenodd" d="M15.126 15.068C14.3695 15.0663 13.9362 15.4531 13.9339 16.3154L13.9329 17.8679L17.9461 17.8743L17.9401 20.5471L13.9701 20.5411L13.95 28.7299L10.6637 29.3309L10.6838 20.5334L9.32153 20.5304L9.32791 17.8358L10.6902 17.8388L10.6918 16.0062C10.6975 13.4625 11.9759 12.3014 14.2889 12.3068C15.327 12.3095 16.0184 12.44 16.6235 12.6354L16.6171 15.3517C16.1419 15.1781 15.6881 15.0693 15.126 15.068Z" fill="#C9A538"/>
<path fill-rule="evenodd" clip-rule="evenodd" d="M0 22C0 34.1509 9.87944 44 22.0666 44C34.2533 44 44.1328 34.1509 44.1328 22C44.1328 9.84979 34.2533 0 22.0666 0C9.87944 0 0 9.84979 0 22ZM22.0666 3.63215C32.2249 3.63215 40.4897 11.8718 40.4897 22C40.4897 32.1285 32.2249 40.3682 22.0666 40.3682C11.9079 40.3682 3.64308 32.1285 3.64308 22C3.64308 11.8718 11.9079 3.63215 22.0666 3.63215Z" fill="#C9A538"/>
<path fill-rule="evenodd" clip-rule="evenodd" d="M7.90841 34.3465C4.19888 34.3465 1.6311 30.9194 1.6311 27.8086L4.78922 28.0833C5.68497 30.4219 6.20954 31.2002 7.92553 31.2002C9.28577 31.2002 10.4013 30.4249 10.6541 29.1972C10.6631 29.1189 10.6682 28.7308 10.6655 28.5832V28.3102L13.9525 28.3205L13.9552 28.5257C13.9635 29.0001 13.934 29.4947 13.8588 29.8594C13.2984 32.5838 10.8031 34.3465 7.90841 34.3465Z" fill="#C9A538"/>
</svg>
